ffmpeg version 3.4.8-0ubuntu0.2 Copyright (c) 2000-2020 the FFmpeg developers
  built with gcc 7 (Ubuntu 7.5.0-3ubuntu1~18.04)
  configuration: --prefix=/usr --extra-version=0ubuntu0.2 --toolchain=hardened --libdir=/usr/lib/x86_64-linux-gnu --incdir=/usr/include/x86_64-linux-gnu --enable-gpl --disable-stripping --enable-avresample --enable-avisynth --enable-gnutls --enable-ladspa --enable-libass --enable-libbluray --enable-libbs2b --enable-libcaca --enable-libcdio --enable-libflite --enable-libfontconfig --enable-libfreetype --enable-libfribidi --enable-libgme --enable-libgsm --enable-libmp3lame --enable-libmysofa --enable-libopenjpeg --enable-libopenmpt --enable-libopus --enable-libpulse --enable-librubberband --enable-librsvg --enable-libshine --enable-libsnappy --enable-libsoxr --enable-libspeex --enable-libssh --enable-libtheora --enable-libtwolame --enable-libvorbis --enable-libvpx --enable-libwavpack --enable-libwebp --enable-libx265 --enable-libxml2 --enable-libxvid --enable-libzmq --enable-libzvbi --enable-omx --enable-openal --enable-opengl --enable-sdl2 --enable-libdc1394 --enable-libdrm --enable-libiec61883 --enable-chromaprint --enable-frei0r --enable-libopencv --enable-libx264 --enable-shared
  libavutil      55. 78.100 / 55. 78.100
  libavcodec     57.107.100 / 57.107.100
  libavformat    57. 83.100 / 57. 83.100
  libavdevice    57. 10.100 / 57. 10.100
  libavfilter     6.107.100 /  6.107.100
  libavresample   3.  7.  0 /  3.  7.  0
  libswscale      4.  8.100 /  4.  8.100
  libswresample   2.  9.100 /  2.  9.100
  libpostproc    54.  7.100 / 54.  7.100
[rawvideo @ 0x55f1b8f61a20] Estimating duration from bitrate, this may be inaccurate
Input #0, rawvideo, from '../../SVC-Encoder-20220109T061506Z-001/SVC-Encoder/Dataset/RollerCoaster/ERP_8x8/tile_yuv/Tile_30_480x240.yuv':
  Duration: 00:00:10.00, start: 0.000000, bitrate: 41472 kb/s
    Stream #0:0: Video: rawvideo (I420 / 0x30323449), yuv420p, 480x240, 41472 kb/s, 30 tbr, 30 tbn, 30 tbc
Stream mapping:
  Stream #0:0 -> #0:0 (rawvideo (native) -> h264 (libx264))
Press [q] to stop, [?] for help
[libx264 @ 0x55f1b8f6ec60] using cpu capabilities: MMX2 SSE2Fast LZCNT SSSE3 SSE4.2 AVX
[libx264 @ 0x55f1b8f6ec60] profile High, level 2.1
Output #0, rawvideo, to 'RollerCoaster_Tile_30_480x240_x264_QP_40.h264':
  Metadata:
    encoder         : Lavf57.83.100
    Stream #0:0: Video: h264 (libx264), yuv420p, 480x240, q=-1--1, 30 fps, 30 tbn, 30 tbc
    Metadata:
      encoder         : Lavc57.107.100 libx264
    Side data:
      cpb: bitrate max/min/avg: 0/0/0 buffer size: 0 vbv_delay: -1
frame=  234 fps=0.0 q=46.0 PSNR=Y:nan U:nan V:nan *:nan size=      29kB time=00:00:06.36 bitrate=  37.7kbits/s speed=12.7x    frame=  300 fps=0.0 q=46.0 LPSNR=Y:inf U:inf V:inf *:inf size=      41kB time=00:00:09.93 bitrate=  33.4kbits/s speed=14.7x    
video:41kB audio:0kB subtitle:0kB other streams:0kB global headers:0kB muxing overhead: 0.000000%
[libx264 @ 0x55f1b8f6ec60] frame I:2     Avg QP:38.48  size:  2954  PSNR Mean Y:31.09 U:41.83 V:44.84 Avg:32.71 Global:32.55
[libx264 @ 0x55f1b8f6ec60] frame P:80    Avg QP:40.21  size:   291  PSNR Mean Y:30.11 U:41.90 V:43.80 Avg:31.75 Global:31.73
[libx264 @ 0x55f1b8f6ec60] frame B:218   Avg QP:45.64  size:    57  PSNR Mean Y:29.98 U:41.97 V:43.79 Avg:31.62 Global:31.60
[libx264 @ 0x55f1b8f6ec60] consecutive B-frames:  1.7%  4.0%  1.0% 93.3%
[libx264 @ 0x55f1b8f6ec60] mb I  I16..4: 39.2% 57.9%  2.9%
[libx264 @ 0x55f1b8f6ec60] mb P  I16..4:  0.8%  0.6%  0.0%  P16..4: 25.4%  0.9%  0.2%  0.0%  0.0%    skip:72.0%
[libx264 @ 0x55f1b8f6ec60] mb B  I16..4:  0.0%  0.0%  0.0%  B16..8:  7.4%  0.3%  0.0%  direct: 0.0%  skip:92.3%  L0:41.2% L1:58.8% BI: 0.0%
[libx264 @ 0x55f1b8f6ec60] 8x8 transform intra:52.6% inter:90.4%
[libx264 @ 0x55f1b8f6ec60] coded y,uvDC,uvAC intra: 41.2% 32.5% 3.0% inter: 0.8% 0.3% 0.0%
[libx264 @ 0x55f1b8f6ec60] i16 v,h,dc,p: 16% 31% 34% 19%
[libx264 @ 0x55f1b8f6ec60] i8 v,h,dc,ddl,ddr,vr,hd,vl,hu:  6% 14% 40%  7%  6%  6%  6%  4% 11%
[libx264 @ 0x55f1b8f6ec60] i4 v,h,dc,ddl,ddr,vr,hd,vl,hu:  7% 12% 60%  5%  2%  0%  2%  5%  6%
[libx264 @ 0x55f1b8f6ec60] i8c dc,h,v,p: 83% 11%  5%  1%
[libx264 @ 0x55f1b8f6ec60] Weighted P-Frames: Y:3.8% UV:0.0%
[libx264 @ 0x55f1b8f6ec60] ref P L0: 67.2% 14.1% 13.2%  5.5%  0.1%
[libx264 @ 0x55f1b8f6ec60] ref B L0: 77.3% 19.5%  3.2%
[libx264 @ 0x55f1b8f6ec60] ref B L1: 87.6% 12.4%
[libx264 @ 0x55f1b8f6ec60] PSNR Mean Y:30.018 U:41.950 V:43.800 Avg:31.665 Global:31.642 kb/s:33.21
